<?xml version='1.0' encoding='ascii'?>
<svg xmlns="http://www.w3.org/2000/svg" height="505" version="1.1" width="546">
    <g id="RenderLayer_LineSet" inkscape:groupmode="lineset" inkscape:label="RenderLayer_LineSet" xmlns:inkscape="http://www.inkscape.org/namespaces/inkscape">
        <g id="strokes" inkscape:groupmode="layer" inkscape:label="strokes" xmlns:inkscape="http://www.inkscape.org/namespaces/inkscape">
            <path d=" M 98.878, 124.440 96.494, 134.152 94.110, 143.863 91.726, 153.575 89.342, 163.287 86.959, 172.998 84.575, 182.710 82.191, 192.422 79.807, 202.134 77.423, 211.845 75.039, 221.557 72.656, 231.269 70.272, 240.980 67.888, 250.692 65.504, 260.404 63.120, 270.116 62.208, 273.833 62.208, 283.833 62.208, 293.833 62.208, 303.833 62.208, 313.833 62.208, 323.833 62.208, 333.833 62.208, 343.833 62.208, 353.833 62.208, 363.833 62.208, 373.833 62.208, 383.833 62.208, 393.833 62.208, 403.833 62.208, 410.745 62.927, 416.206 65.034, 421.294 " fill="none" stroke="rgb(0, 0, 0)" stroke-linecap="butt" stroke-linejoin="round" stroke-opacity="1.0" stroke-width="3.0" />
            <path d=" M 215.936, 361.611 214.292, 362.293 212.526, 362.525 202.526, 362.525 192.526, 362.525 182.526, 362.525 172.526, 362.525 162.526, 362.525 152.526, 362.525 142.526, 362.525 132.526, 362.525 122.526, 362.525 116.967, 362.525 " fill="none" stroke="rgb(0, 0, 0)" stroke-linecap="butt" stroke-linejoin="round" stroke-opacity="1.0" stroke-width="3.0" />
            <path d=" M 110.147, 124.440 100.147, 124.440 98.878, 124.440 " fill="none" stroke="rgb(0, 0, 0)" stroke-linecap="butt" stroke-linejoin="round" stroke-opacity="1.0" stroke-width="3.0" />
            <path d=" M 110.147, 124.440 110.147, 134.440 110.147, 144.440 110.147, 154.440 110.147, 164.440 110.147, 174.440 110.147, 184.440 110.147, 194.440 110.147, 204.440 110.147, 214.440 110.147, 224.440 110.147, 234.440 110.147, 244.440 110.147, 254.440 110.147, 264.440 110.147, 274.440 110.147, 284.440 110.147, 294.440 110.147, 304.440 110.147, 314.440 110.147, 324.440 110.147, 334.440 110.147, 344.440 110.147, 355.705 110.379, 357.470 111.060, 359.115 112.144, 360.528 113.557, 361.611 115.202, 362.293 116.967, 362.525 " fill="none" stroke="rgb(0, 0, 0)" stroke-linecap="butt" stroke-linejoin="round" stroke-opacity="1.0" stroke-width="3.0" />
            <path d=" M 110.379, 357.470 110.147, 355.705 110.147, 345.705 110.147, 335.705 110.147, 325.705 110.147, 315.705 110.147, 305.705 110.147, 295.705 110.147, 285.705 110.147, 275.705 110.147, 265.705 110.147, 255.705 110.147, 245.705 110.147, 235.705 110.147, 225.705 110.147, 215.705 110.147, 205.705 110.147, 195.705 110.147, 185.705 110.147, 175.705 110.147, 165.705 110.147, 155.705 110.147, 145.705 110.147, 135.705 110.147, 124.440 " fill="none" stroke="rgb(0, 0, 0)" stroke-linecap="butt" stroke-linejoin="round" stroke-opacity="1.0" stroke-width="3.0" />
            <path d=" M 219.114, 357.470 218.433, 359.115 217.349, 360.528 215.936, 361.611 " fill="none" stroke="rgb(0, 0, 0)" stroke-linecap="butt" stroke-linejoin="round" stroke-opacity="1.0" stroke-width="3.0" />
            <path d=" M 111.060, 359.115 110.379, 357.470 " fill="none" stroke="rgb(0, 0, 0)" stroke-linecap="butt" stroke-linejoin="round" stroke-opacity="1.0" stroke-width="3.0" />
            <path d=" M 234.305, 431.123 239.394, 429.016 243.763, 425.663 247.115, 421.294 249.223, 416.206 249.942, 410.746 249.942, 400.746 249.942, 390.746 249.942, 380.746 249.942, 370.746 249.942, 360.746 249.942, 350.746 249.942, 340.746 249.942, 330.746 249.942, 320.746 249.942, 310.746 249.942, 307.471 " fill="none" stroke="rgb(0, 0, 0)" stroke-linecap="butt" stroke-linejoin="round" stroke-opacity="1.0" stroke-width="3.0" />
            <path d=" M 65.034, 421.294 68.387, 425.663 " fill="none" stroke="rgb(0, 0, 0)" stroke-linecap="butt" stroke-linejoin="round" stroke-opacity="1.0" stroke-width="3.0" />
            <path d=" M 68.387, 425.663 72.756, 429.016 " fill="none" stroke="rgb(0, 0, 0)" stroke-linecap="butt" stroke-linejoin="round" stroke-opacity="1.0" stroke-width="3.0" />
            <path d=" M 72.756, 429.016 77.844, 431.123 " fill="none" stroke="rgb(0, 0, 0)" stroke-linecap="butt" stroke-linejoin="round" stroke-opacity="1.0" stroke-width="3.0" />
            <path d=" M 77.844, 431.123 83.304, 431.842 " fill="none" stroke="rgb(0, 0, 0)" stroke-linecap="butt" stroke-linejoin="round" stroke-opacity="1.0" stroke-width="3.0" />
            <path d=" M 88.076, 431.842 88.076, 431.842 88.076, 421.842 88.076, 411.842 88.076, 401.842 88.076, 398.925 97.176, 398.925 " fill="none" stroke="rgb(0, 0, 0)" stroke-linecap="butt" stroke-linejoin="round" stroke-opacity="1.0" stroke-width="3.0" />
            <path d=" M 97.176, 431.842 107.176, 431.842 117.176, 431.842 127.176, 431.842 137.176, 431.842 147.176, 431.842 147.939, 431.842 " fill="none" stroke="rgb(0, 0, 0)" stroke-linecap="butt" stroke-linejoin="round" stroke-opacity="1.0" stroke-width="3.0" />
            <path d=" M 147.939, 431.842 147.940, 421.842 147.941, 411.842 147.943, 401.842 147.943, 398.942 157.039, 398.925 " fill="none" stroke="rgb(0, 0, 0)" stroke-linecap="butt" stroke-linejoin="round" stroke-opacity="1.0" stroke-width="3.0" />
            <path d=" M 147.943, 398.942 147.923, 398.942 137.923, 398.939 127.923, 398.936 117.923, 398.932 107.923, 398.929 97.923, 398.926 97.176, 398.925 107.176, 398.925 117.176, 398.925 127.176, 398.925 137.176, 398.925 147.176, 398.925 157.039, 398.925 " fill="none" stroke="rgb(0, 0, 0)" stroke-linecap="butt" stroke-linejoin="round" stroke-opacity="1.0" stroke-width="3.0" />
            <path d=" M 157.039, 431.842 167.039, 431.842 177.039, 431.842 187.039, 431.842 197.039, 431.842 207.039, 431.842 217.039, 431.842 227.039, 431.842 228.845, 431.842 " fill="none" stroke="rgb(0, 0, 0)" stroke-linecap="butt" stroke-linejoin="round" stroke-opacity="1.0" stroke-width="3.0" />
            <path d=" M 228.845, 431.842 234.305, 431.123 " fill="none" stroke="rgb(0, 0, 0)" stroke-linecap="butt" stroke-linejoin="round" stroke-opacity="1.0" stroke-width="3.0" />
            <path d=" M 415.685, 256.667 415.685, 266.667 415.685, 276.667 415.685, 286.667 415.685, 296.667 415.685, 306.667 415.685, 316.667 415.685, 326.667 415.685, 336.667 415.685, 346.667 415.685, 355.705 415.452, 357.470 414.771, 359.115 413.687, 360.528 412.274, 361.611 410.630, 362.293 408.864, 362.525 398.864, 362.525 388.864, 362.525 378.864, 362.525 368.864, 362.525 358.864, 362.525 348.864, 362.525 338.864, 362.525 328.864, 362.525 318.864, 362.525 313.305, 362.525 311.540, 362.293 309.895, 361.611 " fill="none" stroke="rgb(0, 0, 0)" stroke-linecap="butt" stroke-linejoin="round" stroke-opacity="1.0" stroke-width="3.0" />
            <path d=" M 306.485, 124.440 306.485, 134.440 306.485, 144.440 306.485, 154.440 306.485, 164.440 306.485, 174.440 306.485, 184.440 306.485, 194.440 306.485, 204.440 306.485, 214.440 306.485, 224.440 306.485, 234.440 306.485, 244.440 306.485, 254.440 306.485, 264.440 306.485, 274.440 306.485, 284.440 306.485, 294.440 306.485, 304.440 306.485, 314.440 306.485, 324.440 306.485, 334.440 306.485, 344.440 306.485, 355.705 306.717, 357.470 307.398, 359.115 308.482, 360.528 309.895, 361.611 " fill="none" stroke="rgb(0, 0, 0)" stroke-linecap="butt" stroke-linejoin="round" stroke-opacity="1.0" stroke-width="3.0" />
            <path d=" M 308.482, 360.528 307.398, 359.115 306.717, 357.470 306.485, 355.705 306.485, 345.705 306.485, 335.705 306.485, 325.705 306.485, 315.705 306.485, 305.705 306.485, 295.705 306.485, 285.705 306.485, 275.705 306.485, 265.705 306.485, 255.705 306.485, 245.705 306.485, 235.705 306.485, 225.705 306.485, 215.705 306.485, 205.705 306.485, 195.705 306.485, 185.705 306.485, 175.705 306.485, 165.705 306.485, 155.705 306.485, 145.705 306.485, 135.705 306.485, 124.440 " fill="none" stroke="rgb(0, 0, 0)" stroke-linecap="butt" stroke-linejoin="round" stroke-opacity="1.0" stroke-width="3.0" />
            <path d=" M 353.376, 431.842 363.376, 431.842 373.376, 431.842 383.376, 431.842 393.376, 431.842 403.376, 431.842 413.376, 431.842 423.376, 431.842 425.183, 431.842 430.643, 431.123 435.732, 429.016 440.101, 425.663 443.453, 421.294 445.561, 416.206 446.280, 410.746 446.280, 400.746 446.280, 390.746 446.280, 380.746 446.280, 370.746 446.280, 360.746 446.280, 350.746 446.280, 340.746 446.280, 330.746 446.280, 320.746 446.280, 310.746 446.280, 307.471 442.023, 298.422 437.765, 289.373 433.508, 280.325 429.251, 271.276 424.994, 262.228 422.377, 256.667 415.685, 256.667 " fill="none" stroke="rgb(0, 0, 0)" stroke-linecap="butt" stroke-linejoin="round" stroke-opacity="1.0" stroke-width="3.0" />
            <path d=" M 309.895, 361.611 308.482, 360.528 " fill="none" stroke="rgb(0, 0, 0)" stroke-linecap="butt" stroke-linejoin="round" stroke-opacity="1.0" stroke-width="3.0" />
            <path d=" M 259.265, 416.206 261.372, 421.294 " fill="none" stroke="rgb(0, 0, 0)" stroke-linecap="butt" stroke-linejoin="round" stroke-opacity="1.0" stroke-width="3.0" />
            <path d=" M 261.372, 421.294 264.725, 425.663 " fill="none" stroke="rgb(0, 0, 0)" stroke-linecap="butt" stroke-linejoin="round" stroke-opacity="1.0" stroke-width="3.0" />
            <path d=" M 264.725, 425.663 269.094, 429.016 " fill="none" stroke="rgb(0, 0, 0)" stroke-linecap="butt" stroke-linejoin="round" stroke-opacity="1.0" stroke-width="3.0" />
            <path d=" M 269.094, 429.016 274.182, 431.123 " fill="none" stroke="rgb(0, 0, 0)" stroke-linecap="butt" stroke-linejoin="round" stroke-opacity="1.0" stroke-width="3.0" />
            <path d=" M 274.182, 431.123 279.642, 431.842 " fill="none" stroke="rgb(0, 0, 0)" stroke-linecap="butt" stroke-linejoin="round" stroke-opacity="1.0" stroke-width="3.0" />
            <path d=" M 279.642, 431.842 284.414, 431.842 " fill="none" stroke="rgb(0, 0, 0)" stroke-linecap="butt" stroke-linejoin="round" stroke-opacity="1.0" stroke-width="3.0" />
            <path d=" M 284.414, 431.842 284.414, 431.842 284.414, 421.842 284.414, 411.842 284.414, 401.842 284.414, 398.925 284.414, 398.925 293.514, 398.925 293.514, 408.925 293.514, 418.925 293.514, 428.925 293.514, 431.842 " fill="none" stroke="rgb(0, 0, 0)" stroke-linecap="butt" stroke-linejoin="round" stroke-opacity="1.0" stroke-width="3.0" />
            <path d=" M 344.276, 431.842 344.278, 421.842 344.279, 411.842 344.281, 401.842 344.281, 398.942 353.376, 398.925 353.376, 408.925 353.376, 418.925 353.376, 428.925 353.376, 431.842 " fill="none" stroke="rgb(0, 0, 0)" stroke-linecap="butt" stroke-linejoin="round" stroke-opacity="1.0" stroke-width="3.0" />
            <path d=" M 344.281, 398.942 344.261, 398.942 334.261, 398.939 324.261, 398.936 314.261, 398.932 304.261, 398.929 294.261, 398.926 293.514, 398.925 293.514, 398.925 293.514, 398.925 303.514, 398.925 313.514, 398.925 323.514, 398.925 333.514, 398.925 343.514, 398.925 353.376, 398.925 " fill="none" stroke="rgb(0, 0, 0)" stroke-linecap="butt" stroke-linejoin="round" stroke-opacity="1.0" stroke-width="3.0" />
            <path d=" M 437.748, 203.641 433.787, 198.814 428.961, 194.854 423.454, 191.910 " fill="none" stroke="rgb(0, 0, 0)" stroke-linecap="butt" stroke-linejoin="round" stroke-opacity="1.0" stroke-width="3.0" />
            <path d=" M 443.116, 221.336 442.504, 215.122 440.691, 209.147 437.748, 203.641 " fill="none" stroke="rgb(0, 0, 0)" stroke-linecap="butt" stroke-linejoin="round" stroke-opacity="1.0" stroke-width="3.0" />
            <path d=" M 417.479, 252.574 423.454, 250.761 428.961, 247.818 433.787, 243.857 437.748, 239.031 440.691, 233.524 442.504, 227.549 443.116, 221.336 " fill="none" stroke="rgb(0, 0, 0)" stroke-linecap="butt" stroke-linejoin="round" stroke-opacity="1.0" stroke-width="3.0" />
            <path d=" M 395.339, 338.901 403.302, 336.768 409.132, 330.938 411.266, 322.974 411.266, 312.974 411.266, 302.974 411.266, 292.974 411.266, 282.974 411.266, 272.974 411.266, 262.974 411.266, 253.186 417.479, 252.574 " fill="none" stroke="rgb(0, 0, 0)" stroke-linecap="butt" stroke-linejoin="round" stroke-opacity="1.0" stroke-width="3.0" />
            <path d=" M 409.132, 111.734 403.302, 105.904 395.339, 103.770 385.339, 103.770 375.339, 103.770 365.339, 103.770 355.339, 103.770 345.339, 103.770 335.339, 103.770 325.339, 103.770 315.339, 103.770 310.558, 103.770 310.558, 113.770 310.558, 123.770 310.558, 130.336 " fill="none" stroke="rgb(0, 0, 0)" stroke-linecap="butt" stroke-linejoin="round" stroke-opacity="1.0" stroke-width="3.0" />
            <path d=" M 411.266, 212.236 413.041, 212.411 414.748, 212.929 416.321, 213.769 " fill="none" stroke="rgb(0, 0, 0)" stroke-linecap="butt" stroke-linejoin="round" stroke-opacity="1.0" stroke-width="3.0" />
            <path d=" M 414.748, 229.743 413.041, 230.261 411.266, 230.436 409.490, 230.261 407.783, 229.743 406.210, 228.902 404.831, 227.770 403.699, 226.392 402.858, 224.818 " fill="none" stroke="rgb(0, 0, 0)" stroke-linecap="butt" stroke-linejoin="round" stroke-opacity="1.0" stroke-width="3.0" />
            <path d=" M 416.321, 213.769 417.700, 214.901 " fill="none" stroke="rgb(0, 0, 0)" stroke-linecap="butt" stroke-linejoin="round" stroke-opacity="1.0" stroke-width="3.0" />
            <path d=" M 417.700, 214.901 418.832, 216.280 419.673, 217.853 420.191, 219.561 420.366, 221.336 420.191, 223.111 419.673, 224.818 418.832, 226.392 " fill="none" stroke="rgb(0, 0, 0)" stroke-linecap="butt" stroke-linejoin="round" stroke-opacity="1.0" stroke-width="3.0" />
            <path d=" M 416.321, 228.902 414.748, 229.743 " fill="none" stroke="rgb(0, 0, 0)" stroke-linecap="butt" stroke-linejoin="round" stroke-opacity="1.0" stroke-width="3.0" />
            <path d=" M 418.832, 226.392 417.700, 227.771 416.321, 228.902 " fill="none" stroke="rgb(0, 0, 0)" stroke-linecap="butt" stroke-linejoin="round" stroke-opacity="1.0" stroke-width="3.0" />
            <path d=" M 417.479, 190.098 411.266, 189.486 411.266, 179.486 411.266, 169.486 411.266, 159.486 411.266, 149.486 411.266, 139.486 411.266, 129.486 411.266, 119.697 " fill="none" stroke="rgb(0, 0, 0)" stroke-linecap="butt" stroke-linejoin="round" stroke-opacity="1.0" stroke-width="3.0" />
            <path d=" M 310.558, 338.901 320.558, 338.901 330.558, 338.901 340.558, 338.901 350.558, 338.901 360.558, 338.901 370.558, 338.901 380.558, 338.901 390.558, 338.901 395.339, 338.901 " fill="none" stroke="rgb(0, 0, 0)" stroke-linecap="butt" stroke-linejoin="round" stroke-opacity="1.0" stroke-width="3.0" />
            <path d=" M 346.958, 312.336 346.958, 303.236 336.958, 303.236 326.958, 303.236 316.958, 303.236 310.558, 303.236 " fill="none" stroke="rgb(0, 0, 0)" stroke-linecap="butt" stroke-linejoin="round" stroke-opacity="1.0" stroke-width="3.0" />
            <path d=" M 310.558, 130.336 320.558, 130.336 330.558, 130.336 340.558, 130.336 346.958, 130.336 346.958, 139.436 346.958, 139.436 336.958, 139.436 326.958, 139.436 316.958, 139.436 310.558, 139.436 " fill="none" stroke="rgb(0, 0, 0)" stroke-linecap="butt" stroke-linejoin="round" stroke-opacity="1.0" stroke-width="3.0" />
            <path d=" M 346.958, 303.236 346.958, 303.236 " fill="none" stroke="rgb(0, 0, 0)" stroke-linecap="butt" stroke-linejoin="round" stroke-opacity="1.0" stroke-width="3.0" />
            <path d=" M 310.558, 139.436 310.558, 149.436 310.558, 159.436 310.558, 169.436 310.558, 179.436 310.558, 189.436 310.558, 199.436 310.558, 209.436 310.558, 219.436 310.558, 229.436 310.558, 239.436 310.558, 249.436 310.558, 259.436 310.558, 269.436 310.558, 279.436 310.558, 289.436 310.558, 299.436 310.558, 303.236 " fill="none" stroke="rgb(0, 0, 0)" stroke-linecap="butt" stroke-linejoin="round" stroke-opacity="1.0" stroke-width="3.0" />
            <path d=" M 310.558, 303.236 320.558, 303.236 330.558, 303.236 340.558, 303.236 346.958, 303.236 346.958, 312.336 346.958, 312.336 336.958, 312.336 326.958, 312.336 316.958, 312.336 310.558, 312.336 " fill="none" stroke="rgb(0, 0, 0)" stroke-linecap="butt" stroke-linejoin="round" stroke-opacity="1.0" stroke-width="3.0" />
            <path d=" M 402.341, 223.111 402.166, 221.336 402.341, 219.560 402.858, 217.853 403.699, 216.280 404.831, 214.901 406.210, 213.769 407.783, 212.929 409.490, 212.411 411.266, 212.236 " fill="none" stroke="rgb(0, 0, 0)" stroke-linecap="butt" stroke-linejoin="round" stroke-opacity="1.0" stroke-width="3.0" />
            <path d=" M 416.321, 228.902 414.748, 229.743 " fill="none" stroke="rgb(0, 0, 0)" stroke-linecap="butt" stroke-linejoin="round" stroke-opacity="1.0" stroke-width="3.0" />
            <path d=" M 416.321, 228.902 417.700, 227.771 " fill="none" stroke="rgb(0, 0, 0)" stroke-linecap="butt" stroke-linejoin="round" stroke-opacity="1.0" stroke-width="3.0" />
            <path d=" M 242.218, 203.641 238.257, 198.814 233.430, 194.854 227.924, 191.910 221.949, 190.098 215.735, 189.486 215.735, 179.486 215.735, 169.486 215.735, 159.486 215.735, 149.486 215.735, 139.486 215.735, 129.486 215.735, 119.697 213.601, 111.734 207.772, 105.904 199.808, 103.770 " fill="none" stroke="rgb(0, 0, 0)" stroke-linecap="butt" stroke-linejoin="round" stroke-opacity="1.0" stroke-width="3.0" />
            <path d=" M 245.161, 233.524 246.973, 227.549 247.585, 221.336 246.973, 215.122 " fill="none" stroke="rgb(0, 0, 0)" stroke-linecap="butt" stroke-linejoin="round" stroke-opacity="1.0" stroke-width="3.0" />
            <path d=" M 242.217, 239.031 245.161, 233.524 " fill="none" stroke="rgb(0, 0, 0)" stroke-linecap="butt" stroke-linejoin="round" stroke-opacity="1.0" stroke-width="3.0" />
            <path d=" M 215.735, 253.186 221.949, 252.574 227.924, 250.761 233.430, 247.818 238.257, 243.857 242.217, 239.031 " fill="none" stroke="rgb(0, 0, 0)" stroke-linecap="butt" stroke-linejoin="round" stroke-opacity="1.0" stroke-width="3.0" />
            <path d=" M 213.601, 330.938 215.735, 322.974 215.735, 312.974 215.735, 302.974 215.735, 292.974 215.735, 282.974 215.735, 272.974 215.735, 262.974 215.735, 253.186 " fill="none" stroke="rgb(0, 0, 0)" stroke-linecap="butt" stroke-linejoin="round" stroke-opacity="1.0" stroke-width="3.0" />
            <path d=" M 210.680, 213.769 212.253, 212.929 213.960, 212.411 215.735, 212.236 217.511, 212.411 219.218, 212.929 " fill="none" stroke="rgb(0, 0, 0)" stroke-linecap="butt" stroke-linejoin="round" stroke-opacity="1.0" stroke-width="3.0" />
            <path d=" M 220.791, 228.902 219.218, 229.743 217.511, 230.261 215.735, 230.436 213.960, 230.261 212.253, 229.743 210.680, 228.902 209.301, 227.770 " fill="none" stroke="rgb(0, 0, 0)" stroke-linecap="butt" stroke-linejoin="round" stroke-opacity="1.0" stroke-width="3.0" />
            <path d=" M 219.218, 212.929 220.791, 213.769 222.170, 214.901 223.302, 216.280 224.143, 217.853 224.660, 219.561 224.835, 221.336 224.660, 223.111 224.143, 224.818 223.302, 226.392 222.170, 227.771 " fill="none" stroke="rgb(0, 0, 0)" stroke-linecap="butt" stroke-linejoin="round" stroke-opacity="1.0" stroke-width="3.0" />
            <path d=" M 222.170, 227.771 220.791, 228.902 " fill="none" stroke="rgb(0, 0, 0)" stroke-linecap="butt" stroke-linejoin="round" stroke-opacity="1.0" stroke-width="3.0" />
            <path d=" M 115.027, 338.901 125.027, 338.901 135.027, 338.901 145.027, 338.901 155.027, 338.901 165.027, 338.901 175.027, 338.901 185.027, 338.901 195.027, 338.901 199.808, 338.901 207.772, 336.768 213.601, 330.938 " fill="none" stroke="rgb(0, 0, 0)" stroke-linecap="butt" stroke-linejoin="round" stroke-opacity="1.0" stroke-width="3.0" />
            <path d=" M 151.427, 312.336 151.427, 303.236 141.427, 303.236 131.427, 303.236 121.427, 303.236 115.027, 303.236 " fill="none" stroke="rgb(0, 0, 0)" stroke-linecap="butt" stroke-linejoin="round" stroke-opacity="1.0" stroke-width="3.0" />
            <path d=" M 115.027, 130.336 125.027, 130.336 135.027, 130.336 145.027, 130.336 151.427, 130.336 151.427, 130.336 151.427, 139.436 151.427, 139.436 141.427, 139.436 131.427, 139.436 121.427, 139.436 115.027, 139.436 " fill="none" stroke="rgb(0, 0, 0)" stroke-linecap="butt" stroke-linejoin="round" stroke-opacity="1.0" stroke-width="3.0" />
            <path d=" M 199.808, 103.770 189.808, 103.770 179.808, 103.770 169.808, 103.770 159.808, 103.770 149.808, 103.770 139.808, 103.770 129.808, 103.770 119.808, 103.770 115.027, 103.770 115.027, 113.770 115.027, 123.770 115.027, 130.336 " fill="none" stroke="rgb(0, 0, 0)" stroke-linecap="butt" stroke-linejoin="round" stroke-opacity="1.0" stroke-width="3.0" />
            <path d=" M 151.427, 303.236 151.427, 303.236 " fill="none" stroke="rgb(0, 0, 0)" stroke-linecap="butt" stroke-linejoin="round" stroke-opacity="1.0" stroke-width="3.0" />
            <path d=" M 115.027, 303.236 125.027, 303.236 135.027, 303.236 145.027, 303.236 151.427, 303.236 151.427, 312.336 151.427, 312.336 141.427, 312.336 131.427, 312.336 121.427, 312.336 115.027, 312.336 " fill="none" stroke="rgb(0, 0, 0)" stroke-linecap="butt" stroke-linejoin="round" stroke-opacity="1.0" stroke-width="3.0" />
            <path d=" M 207.328, 217.853 208.169, 216.280 209.301, 214.901 210.680, 213.769 " fill="none" stroke="rgb(0, 0, 0)" stroke-linecap="butt" stroke-linejoin="round" stroke-opacity="1.0" stroke-width="3.0" />
            <path d=" M 209.301, 227.770 208.169, 226.392 207.328, 224.818 206.810, 223.111 " fill="none" stroke="rgb(0, 0, 0)" stroke-linecap="butt" stroke-linejoin="round" stroke-opacity="1.0" stroke-width="3.0" />
            <path d=" M 206.810, 223.111 206.635, 221.336 206.810, 219.560 207.328, 217.853 " fill="none" stroke="rgb(0, 0, 0)" stroke-linecap="butt" stroke-linejoin="round" stroke-opacity="1.0" stroke-width="3.0" />
            <path d=" M 220.791, 228.902 219.218, 229.743 " fill="none" stroke="rgb(0, 0, 0)" stroke-linecap="butt" stroke-linejoin="round" stroke-opacity="1.0" stroke-width="3.0" />
            <path d=" M 220.791, 228.902 222.170, 227.771 " fill="none" stroke="rgb(0, 0, 0)" stroke-linecap="butt" stroke-linejoin="round" stroke-opacity="1.0" stroke-width="3.0" />
            <path d=" M 83.304, 431.842 88.076, 431.842 " fill="none" stroke="rgb(0, 0, 0)" stroke-linecap="butt" stroke-linejoin="round" stroke-opacity="1.0" stroke-width="3.0" />
            <path d=" M 97.176, 398.925 97.176, 408.925 97.176, 418.925 97.176, 428.925 97.176, 431.842 " fill="none" stroke="rgb(0, 0, 0)" stroke-linecap="butt" stroke-linejoin="round" stroke-opacity="1.0" stroke-width="3.0" />
            <path d=" M 115.027, 312.336 115.027, 322.336 115.027, 332.336 115.027, 338.901 " fill="none" stroke="rgb(0, 0, 0)" stroke-linecap="butt" stroke-linejoin="round" stroke-opacity="1.0" stroke-width="3.0" />
            <path d=" M 115.027, 139.436 115.027, 149.436 115.027, 159.436 115.027, 169.436 115.027, 179.436 115.027, 189.436 115.027, 199.436 115.027, 209.436 115.027, 219.436 115.027, 229.436 115.027, 239.436 115.027, 249.436 115.027, 259.436 115.027, 269.436 115.027, 279.436 115.027, 289.436 115.027, 299.436 115.027, 303.236 " fill="none" stroke="rgb(0, 0, 0)" stroke-linecap="butt" stroke-linejoin="round" stroke-opacity="1.0" stroke-width="3.0" />
            <path d=" M 151.427, 139.436 151.427, 130.336 " fill="none" stroke="rgb(0, 0, 0)" stroke-linecap="butt" stroke-linejoin="round" stroke-opacity="1.0" stroke-width="3.0" />
            <path d=" M 157.039, 398.925 157.039, 408.925 157.039, 418.925 157.039, 428.925 157.039, 431.842 " fill="none" stroke="rgb(0, 0, 0)" stroke-linecap="butt" stroke-linejoin="round" stroke-opacity="1.0" stroke-width="3.0" />
            <path d=" M 219.347, 355.705 219.114, 357.470 " fill="none" stroke="rgb(0, 0, 0)" stroke-linecap="butt" stroke-linejoin="round" stroke-opacity="1.0" stroke-width="3.0" />
            <path d=" M 219.347, 256.667 219.347, 266.667 219.347, 276.667 219.347, 286.667 219.347, 296.667 219.347, 306.667 219.347, 316.667 219.347, 326.667 219.347, 336.667 219.347, 346.667 219.347, 355.705 " fill="none" stroke="rgb(0, 0, 0)" stroke-linecap="butt" stroke-linejoin="round" stroke-opacity="1.0" stroke-width="3.0" />
            <path d=" M 226.039, 256.667 219.347, 256.667 " fill="none" stroke="rgb(0, 0, 0)" stroke-linecap="butt" stroke-linejoin="round" stroke-opacity="1.0" stroke-width="3.0" />
            <path d=" M 245.161, 209.147 242.218, 203.641 " fill="none" stroke="rgb(0, 0, 0)" stroke-linecap="butt" stroke-linejoin="round" stroke-opacity="1.0" stroke-width="3.0" />
            <path d=" M 246.973, 215.122 245.161, 209.147 " fill="none" stroke="rgb(0, 0, 0)" stroke-linecap="butt" stroke-linejoin="round" stroke-opacity="1.0" stroke-width="3.0" />
            <path d=" M 249.942, 307.471 245.685, 298.422 241.427, 289.373 237.170, 280.325 232.913, 271.276 228.656, 262.228 226.039, 256.667 " fill="none" stroke="rgb(0, 0, 0)" stroke-linecap="butt" stroke-linejoin="round" stroke-opacity="1.0" stroke-width="3.0" />
            <path d=" M 258.546, 273.833 258.546, 283.833 258.546, 293.833 258.546, 303.833 258.546, 313.833 258.546, 323.833 258.546, 333.833 258.546, 343.833 258.546, 353.833 258.546, 363.833 258.546, 373.833 258.546, 383.833 258.546, 393.833 258.546, 403.833 258.546, 410.745 " fill="none" stroke="rgb(0, 0, 0)" stroke-linecap="butt" stroke-linejoin="round" stroke-opacity="1.0" stroke-width="3.0" />
            <path d=" M 258.546, 410.745 259.265, 416.206 " fill="none" stroke="rgb(0, 0, 0)" stroke-linecap="butt" stroke-linejoin="round" stroke-opacity="1.0" stroke-width="3.0" />
            <path d=" M 284.414, 398.925 284.414, 408.925 284.414, 418.925 284.414, 428.925 284.414, 431.842 " fill="none" stroke="rgb(0, 0, 0)" stroke-linecap="butt" stroke-linejoin="round" stroke-opacity="1.0" stroke-width="3.0" />
            <path d=" M 295.216, 124.440 292.832, 134.152 290.448, 143.863 288.064, 153.575 285.680, 163.287 283.296, 172.998 280.913, 182.710 278.529, 192.422 276.145, 202.134 273.761, 211.845 271.377, 221.557 268.994, 231.269 266.610, 240.980 264.226, 250.692 261.842, 260.404 259.458, 270.116 258.546, 273.833 " fill="none" stroke="rgb(0, 0, 0)" stroke-linecap="butt" stroke-linejoin="round" stroke-opacity="1.0" stroke-width="3.0" />
            <path d=" M 306.485, 124.440 296.485, 124.440 295.216, 124.440 " fill="none" stroke="rgb(0, 0, 0)" stroke-linecap="butt" stroke-linejoin="round" stroke-opacity="1.0" stroke-width="3.0" />
            <path d=" M 310.558, 312.336 310.558, 322.336 310.558, 332.336 310.558, 338.901 " fill="none" stroke="rgb(0, 0, 0)" stroke-linecap="butt" stroke-linejoin="round" stroke-opacity="1.0" stroke-width="3.0" />
            <path d=" M 293.514, 431.842 303.514, 431.842 313.514, 431.842 323.514, 431.842 333.514, 431.842 343.514, 431.842 344.276, 431.842 " fill="none" stroke="rgb(0, 0, 0)" stroke-linecap="butt" stroke-linejoin="round" stroke-opacity="1.0" stroke-width="3.0" />
            <path d=" M 346.958, 139.436 346.958, 130.336 " fill="none" stroke="rgb(0, 0, 0)" stroke-linecap="butt" stroke-linejoin="round" stroke-opacity="1.0" stroke-width="3.0" />
            <path d=" M 402.858, 224.818 402.341, 223.111 " fill="none" stroke="rgb(0, 0, 0)" stroke-linecap="butt" stroke-linejoin="round" stroke-opacity="1.0" stroke-width="3.0" />
            <path d=" M 411.266, 119.697 409.132, 111.734 " fill="none" stroke="rgb(0, 0, 0)" stroke-linecap="butt" stroke-linejoin="round" stroke-opacity="1.0" stroke-width="3.0" />
            <path d=" M 423.454, 191.910 417.479, 190.098 " fill="none" stroke="rgb(0, 0, 0)" stroke-linecap="butt" stroke-linejoin="round" stroke-opacity="1.0" stroke-width="3.0" />
        </g>
    </g>
</svg>
